# xmcd CD database file
#
# Track frame offsets:
#	183
#	28598
#	95858
#	162998
#	202873
#	244028
#	280880
#	323795
#
# Disc length: 4415 seconds
#
# Revision: 6
# Processed by: cddbd v1.5.2PL0 Copyright (c) Steve Scherf et al.
# Submitted via: CDex 1.51
#
DISCID=69113d08
DTITLE=Miles Davis Quintet - Vol. 047 - New York, Philharmonic Hall At Lincoln Center (1964)
DYEAR=1996
DGENRE=Jazz
TTITLE0=Four
TTITLE1=My Funny Valentine
TTITLE2=All Of You
TTITLE3=All Blues
TTITLE4=So What
TTITLE5=Walkin'
TTITLE6=Joshua
TTITLE7=Go-Go
EXTD=YEAR: 1996
EXTT0=
EXTT1=
EXTT2=
EXTT3=
EXTT4=
EXTT5=
EXTT6=
EXTT7=
PLAYORDER=
